<svg viewBox="0 0 1600 520" xmlns="http://www.w3.org/2000/svg" preserveAspectRatio="xMidYMid slice"><defs><filter id="pglow" x="-200%" y="-200%" width="500%" height="500%"><feGaussianBlur stdDeviation="6" /></filter></defs><g><polygon points="205.8,71.9 361.6,199.6 297.9,273.9" fill="#ffffff" fill-opacity="0.011"/><polygon points="647.2,55.5 772.9,130.8 641.8,157.0" fill="#ffffff" fill-opacity="0.022"/><polygon points="1363.6,203.1 1371.2,64.2 1538.5,233.5" fill="#ffffff" fill-opacity="0.013"/><polygon points="403.7,93.6 434.3,180.5 361.6,199.6" fill="#ffffff" fill-opacity="0.013"/><polygon points="403.7,93.6 361.6,199.6 205.8,71.9" fill="#ffffff" fill-opacity="0.012"/><polygon points="1052.5,313.9 1265.8,478.4 1165.0,517.5" fill="#ffffff" fill-opacity="0.010"/></g><g stroke="#ffffff" stroke-width="1"><line x1="647.2" y1="55.5" x2="776.3" y2="0.9" stroke-opacity="0.043"/><line x1="1207.0" y1="129.5" x2="1371.2" y2="64.2" stroke-opacity="0.035"/><line x1="1005.4" y1="331.2" x2="1052.5" y2="313.9" stroke-opacity="0.060"/><line x1="205.8" y1="71.9" x2="361.6" y2="199.6" stroke-opacity="0.031"/><line x1="1141.2" y1="156.0" x2="1209.2" y2="3.0" stroke-opacity="0.037"/><line x1="137.0" y1="160.2" x2="297.9" y2="273.9" stroke-opacity="0.031"/><line x1="834.2" y1="322.5" x2="1005.4" y2="331.2" stroke-opacity="0.036"/><line x1="1374.1" y1="456.0" x2="1526.5" y2="321.7" stroke-opacity="0.030"/><line x1="403.7" y1="93.6" x2="361.6" y2="199.6" stroke-opacity="0.048"/><line x1="1624.1" y1="73.2" x2="1538.5" y2="233.5" stroke-opacity="0.034"/><line x1="30.3" y1="42.5" x2="137.0" y2="160.2" stroke-opacity="0.039"/><line x1="641.8" y1="157.0" x2="772.9" y2="130.8" stroke-opacity="0.044"/><line x1="1296.3" y1="294.4" x2="1363.6" y2="203.1" stroke-opacity="0.048"/><line x1="345.5" y1="429.5" x2="486.9" y2="378.1" stroke-opacity="0.040"/><line x1="434.3" y1="180.5" x2="641.8" y2="157.0" stroke-opacity="0.029"/><line x1="213.9" y1="427.3" x2="297.9" y2="273.9" stroke-opacity="0.036"/><line x1="1538.5" y1="233.5" x2="1526.5" y2="321.7" stroke-opacity="0.053"/><line x1="711.1" y1="397.5" x2="690.9" y2="511.2" stroke-opacity="0.047"/><line x1="-4.1" y1="486.5" x2="136.6" y2="374.0" stroke-opacity="0.035"/><line x1="486.9" y1="378.1" x2="497.0" y2="502.7" stroke-opacity="0.046"/><line x1="1141.2" y1="156.0" x2="1296.3" y2="294.4" stroke-opacity="0.029"/><line x1="361.6" y1="199.6" x2="297.9" y2="273.9" stroke-opacity="0.051"/><line x1="844.5" y1="470.7" x2="1014.4" y2="472.1" stroke-opacity="0.037"/><line x1="1011.5" y1="78.8" x2="1050.7" y2="51.3" stroke-opacity="0.061"/><line x1="1526.5" y1="321.7" x2="1609.1" y2="502.9" stroke-opacity="0.031"/><line x1="776.3" y1="0.9" x2="1011.5" y2="78.8" stroke-opacity="0.021"/><line x1="1361.7" y1="325.0" x2="1374.1" y2="456.0" stroke-opacity="0.044"/><line x1="1371.2" y1="64.2" x2="1538.5" y2="233.5" stroke-opacity="0.023"/><line x1="497.0" y1="502.7" x2="711.1" y2="397.5" stroke-opacity="0.023"/><line x1="647.2" y1="55.5" x2="641.8" y2="157.0" stroke-opacity="0.050"/><line x1="1052.5" y1="313.9" x2="1296.3" y2="294.4" stroke-opacity="0.022"/><line x1="1011.5" y1="78.8" x2="1052.5" y2="313.9" stroke-opacity="0.023"/><line x1="711.1" y1="397.5" x2="844.5" y2="470.7" stroke-opacity="0.040"/><line x1="454.8" y1="2.5" x2="434.3" y2="180.5" stroke-opacity="0.035"/><line x1="834.2" y1="322.5" x2="844.5" y2="470.7" stroke-opacity="0.041"/><line x1="772.9" y1="130.8" x2="888.7" y2="148.4" stroke-opacity="0.047"/><line x1="1361.7" y1="325.0" x2="1538.5" y2="233.5" stroke-opacity="0.031"/><line x1="1165.0" y1="517.5" x2="1265.8" y2="478.4" stroke-opacity="0.049"/><line x1="361.6" y1="199.6" x2="486.9" y2="378.1" stroke-opacity="0.027"/><line x1="434.3" y1="180.5" x2="486.9" y2="378.1" stroke-opacity="0.030"/><line x1="1014.4" y1="472.1" x2="1165.0" y2="517.5" stroke-opacity="0.039"/><line x1="834.2" y1="322.5" x2="888.7" y2="148.4" stroke-opacity="0.034"/><line x1="90.8" y1="180.7" x2="137.0" y2="160.2" stroke-opacity="0.060"/><line x1="1050.7" y1="51.3" x2="1209.2" y2="3.0" stroke-opacity="0.038"/><line x1="1011.5" y1="78.8" x2="888.7" y2="148.4" stroke-opacity="0.042"/><line x1="647.2" y1="55.5" x2="772.9" y2="130.8" stroke-opacity="0.041"/><line x1="1207.0" y1="129.5" x2="1363.6" y2="203.1" stroke-opacity="0.036"/><line x1="776.3" y1="0.9" x2="772.9" y2="130.8" stroke-opacity="0.045"/><line x1="454.8" y1="2.5" x2="641.8" y2="157.0" stroke-opacity="0.022"/><line x1="1141.2" y1="156.0" x2="1207.0" y2="129.5" stroke-opacity="0.056"/><line x1="844.5" y1="470.7" x2="1005.4" y2="331.2" stroke-opacity="0.028"/><line x1="403.7" y1="93.6" x2="434.3" y2="180.5" stroke-opacity="0.052"/><line x1="37.4" y1="346.0" x2="136.6" y2="374.0" stroke-opacity="0.050"/><line x1="213.9" y1="427.3" x2="345.5" y2="429.5" stroke-opacity="0.044"/><line x1="1052.5" y1="313.9" x2="1165.0" y2="517.5" stroke-opacity="0.024"/><line x1="888.7" y1="148.4" x2="1005.4" y2="331.2" stroke-opacity="0.027"/><line x1="1005.4" y1="331.2" x2="1014.4" y2="472.1" stroke-opacity="0.042"/><line x1="-4.1" y1="486.5" x2="213.9" y2="427.3" stroke-opacity="0.026"/><line x1="772.9" y1="130.8" x2="834.2" y2="322.5" stroke-opacity="0.031"/><line x1="1265.8" y1="478.4" x2="1374.1" y2="456.0" stroke-opacity="0.048"/><line x1="641.8" y1="157.0" x2="711.1" y2="397.5" stroke-opacity="0.021"/><line x1="1371.2" y1="64.2" x2="1624.1" y2="73.2" stroke-opacity="0.020"/><line x1="1209.2" y1="3.0" x2="1371.2" y2="64.2" stroke-opacity="0.036"/><line x1="776.3" y1="0.9" x2="888.7" y2="148.4" stroke-opacity="0.034"/><line x1="137.0" y1="160.2" x2="136.6" y2="374.0" stroke-opacity="0.028"/><line x1="205.8" y1="71.9" x2="403.7" y2="93.6" stroke-opacity="0.031"/><line x1="486.9" y1="378.1" x2="711.1" y2="397.5" stroke-opacity="0.026"/><line x1="90.8" y1="180.7" x2="37.4" y2="346.0" stroke-opacity="0.036"/><line x1="30.3" y1="42.5" x2="205.8" y2="71.9" stroke-opacity="0.035"/><line x1="297.9" y1="273.9" x2="486.9" y2="378.1" stroke-opacity="0.028"/><line x1="1014.4" y1="472.1" x2="1052.5" y2="313.9" stroke-opacity="0.038"/><line x1="1050.7" y1="51.3" x2="1141.2" y2="156.0" stroke-opacity="0.043"/><line x1="1363.6" y1="203.1" x2="1538.5" y2="233.5" stroke-opacity="0.035"/><line x1="136.6" y1="374.0" x2="297.9" y2="273.9" stroke-opacity="0.033"/><line x1="1141.2" y1="156.0" x2="1052.5" y2="313.9" stroke-opacity="0.034"/><line x1="205.8" y1="71.9" x2="297.9" y2="273.9" stroke-opacity="0.026"/><line x1="1361.7" y1="325.0" x2="1526.5" y2="321.7" stroke-opacity="0.038"/><line x1="1374.1" y1="456.0" x2="1609.1" y2="502.9" stroke-opacity="0.023"/><line x1="37.4" y1="346.0" x2="-4.1" y2="486.5" stroke-opacity="0.041"/><line x1="641.8" y1="157.0" x2="834.2" y2="322.5" stroke-opacity="0.020"/><line x1="1296.3" y1="294.4" x2="1361.7" y2="325.0" stroke-opacity="0.056"/><line x1="345.5" y1="429.5" x2="497.0" y2="502.7" stroke-opacity="0.037"/><line x1="454.8" y1="2.5" x2="647.2" y2="55.5" stroke-opacity="0.031"/><line x1="403.7" y1="93.6" x2="454.8" y2="2.5" stroke-opacity="0.050"/><line x1="90.8" y1="180.7" x2="136.6" y2="374.0" stroke-opacity="0.031"/><line x1="1371.2" y1="64.2" x2="1363.6" y2="203.1" stroke-opacity="0.043"/><line x1="1209.2" y1="3.0" x2="1207.0" y2="129.5" stroke-opacity="0.045"/><line x1="1011.5" y1="78.8" x2="1141.2" y2="156.0" stroke-opacity="0.040"/><line x1="711.1" y1="397.5" x2="834.2" y2="322.5" stroke-opacity="0.042"/><line x1="205.8" y1="71.9" x2="137.0" y2="160.2" stroke-opacity="0.048"/><line x1="1265.8" y1="478.4" x2="1361.7" y2="325.0" stroke-opacity="0.035"/><line x1="30.3" y1="42.5" x2="90.8" y2="180.7" stroke-opacity="0.040"/><line x1="297.9" y1="273.9" x2="345.5" y2="429.5" stroke-opacity="0.038"/><line x1="361.6" y1="199.6" x2="434.3" y2="180.5" stroke-opacity="0.055"/><line x1="690.9" y1="511.2" x2="844.5" y2="470.7" stroke-opacity="0.039"/><line x1="1363.6" y1="203.1" x2="1361.7" y2="325.0" stroke-opacity="0.046"/><line x1="136.6" y1="374.0" x2="213.9" y2="427.3" stroke-opacity="0.052"/><line x1="497.0" y1="502.7" x2="690.9" y2="511.2" stroke-opacity="0.032"/><line x1="1207.0" y1="129.5" x2="1296.3" y2="294.4" stroke-opacity="0.033"/><line x1="888.7" y1="148.4" x2="1052.5" y2="313.9" stroke-opacity="0.024"/><line x1="1296.3" y1="294.4" x2="1265.8" y2="478.4" stroke-opacity="0.033"/></g><g><circle cx="1165.0" cy="517.5" r="12.9" fill="#5FD4F0" fill-opacity="0.10" filter="url(#pglow)"/><circle cx="1363.6" cy="203.1" r="15.2" fill="#5FD4F0" fill-opacity="0.10" filter="url(#pglow)"/><circle cx="1609.1" cy="502.9" r="13.6" fill="#5FD4F0" fill-opacity="0.10" filter="url(#pglow)"/></g><g><circle cx="30.3" cy="42.5" r="1.1" fill="#ffffff" fill-opacity="0.35"/><circle cx="90.8" cy="180.7" r="1.8" fill="#ffffff" fill-opacity="0.35"/><circle cx="37.4" cy="346.0" r="1.6" fill="#ffffff" fill-opacity="0.35"/><circle cx="-4.1" cy="486.5" r="1.9" fill="#ffffff" fill-opacity="0.35"/><circle cx="205.8" cy="71.9" r="1.5" fill="#ffffff" fill-opacity="0.35"/><circle cx="137.0" cy="160.2" r="2.2" fill="#ffffff" fill-opacity="0.35"/><circle cx="136.6" cy="374.0" r="1.2" fill="#ffffff" fill-opacity="0.35"/><circle cx="213.9" cy="427.3" r="1.7" fill="#ffffff" fill-opacity="0.35"/><circle cx="403.7" cy="93.6" r="1.9" fill="#ffffff" fill-opacity="0.35"/><circle cx="361.6" cy="199.6" r="2.1" fill="#ffffff" fill-opacity="0.35"/><circle cx="297.9" cy="273.9" r="1.9" fill="#ffffff" fill-opacity="0.35"/><circle cx="345.5" cy="429.5" r="1.9" fill="#ffffff" fill-opacity="0.35"/><circle cx="454.8" cy="2.5" r="2.0" fill="#ffffff" fill-opacity="0.35"/><circle cx="434.3" cy="180.5" r="2.1" fill="#ffffff" fill-opacity="0.35"/><circle cx="486.9" cy="378.1" r="1.5" fill="#ffffff" fill-opacity="0.35"/><circle cx="497.0" cy="502.7" r="1.9" fill="#ffffff" fill-opacity="0.35"/><circle cx="647.2" cy="55.5" r="2.1" fill="#ffffff" fill-opacity="0.35"/><circle cx="641.8" cy="157.0" r="2.1" fill="#ffffff" fill-opacity="0.35"/><circle cx="711.1" cy="397.5" r="1.6" fill="#ffffff" fill-opacity="0.35"/><circle cx="690.9" cy="511.2" r="2.0" fill="#ffffff" fill-opacity="0.35"/><circle cx="776.3" cy="0.9" r="2.0" fill="#ffffff" fill-opacity="0.35"/><circle cx="772.9" cy="130.8" r="1.7" fill="#ffffff" fill-opacity="0.35"/><circle cx="834.2" cy="322.5" r="1.8" fill="#ffffff" fill-opacity="0.35"/><circle cx="844.5" cy="470.7" r="1.5" fill="#ffffff" fill-opacity="0.35"/><circle cx="1011.5" cy="78.8" r="1.7" fill="#ffffff" fill-opacity="0.35"/><circle cx="888.7" cy="148.4" r="1.8" fill="#ffffff" fill-opacity="0.35"/><circle cx="1005.4" cy="331.2" r="1.2" fill="#ffffff" fill-opacity="0.35"/><circle cx="1014.4" cy="472.1" r="1.8" fill="#ffffff" fill-opacity="0.35"/><circle cx="1050.7" cy="51.3" r="2.2" fill="#ffffff" fill-opacity="0.35"/><circle cx="1141.2" cy="156.0" r="2.1" fill="#ffffff" fill-opacity="0.35"/><circle cx="1052.5" cy="313.9" r="1.9" fill="#ffffff" fill-opacity="0.35"/><circle cx="1165.0" cy="517.5" r="3.2" fill="#5FD4F0" fill-opacity="0.85"/><circle cx="1209.2" cy="3.0" r="1.9" fill="#ffffff" fill-opacity="0.35"/><circle cx="1207.0" cy="129.5" r="1.7" fill="#ffffff" fill-opacity="0.35"/><circle cx="1296.3" cy="294.4" r="1.6" fill="#ffffff" fill-opacity="0.35"/><circle cx="1265.8" cy="478.4" r="2.0" fill="#ffffff" fill-opacity="0.35"/><circle cx="1371.2" cy="64.2" r="1.2" fill="#ffffff" fill-opacity="0.35"/><circle cx="1363.6" cy="203.1" r="3.8" fill="#5FD4F0" fill-opacity="0.85"/><circle cx="1361.7" cy="325.0" r="1.1" fill="#ffffff" fill-opacity="0.35"/><circle cx="1374.1" cy="456.0" r="1.8" fill="#ffffff" fill-opacity="0.35"/><circle cx="1624.1" cy="73.2" r="1.6" fill="#ffffff" fill-opacity="0.35"/><circle cx="1538.5" cy="233.5" r="1.4" fill="#ffffff" fill-opacity="0.35"/><circle cx="1526.5" cy="321.7" r="1.9" fill="#ffffff" fill-opacity="0.35"/><circle cx="1609.1" cy="502.9" r="3.4" fill="#5FD4F0" fill-opacity="0.85"/></g></svg>